<svg xmlns="http://www.w3.org/2000/svg" viewBox="0 0 1200 760" role="img" aria-labelledby="title desc">
<title id="title">Virtual assistant workflow</title><desc id="desc">A four-stage workflow from incoming request to organized task, client approval, and completion.</desc><defs>
  <linearGradient id="bg" x1="0" y1="0" x2="1" y2="1"><stop stop-color="#071c2c"/><stop offset="1" stop-color="#0b3044"/></linearGradient>
  <linearGradient id="cyan" x1="0" y1="0" x2="1" y2="1"><stop stop-color="#23d5e5"/><stop offset="1" stop-color="#56f0cd"/></linearGradient>
  <linearGradient id="lime" x1="0" y1="0" x2="1" y2="1"><stop stop-color="#d8ff3e"/><stop offset="1" stop-color="#9fe53a"/></linearGradient>
  <filter id="shadow"><feDropShadow dx="0" dy="18" stdDeviation="18" flood-opacity=".28"/></filter>
  <pattern id="grid" width="40" height="40" patternUnits="userSpaceOnUse"><path d="M40 0H0V40" fill="none" stroke="#fff" stroke-opacity=".055"/></pattern>
</defs>
<rect width="1200" height="760" rx="36" fill="url(#bg)"/><rect width="1200" height="760" rx="36" fill="url(#grid)"/>
<path d="M150 380H1048" stroke="#23d5e5" stroke-width="8" stroke-dasharray="18 18" opacity=".55"/>
<g fill="#0d3044" stroke="#23d5e5" stroke-width="3"><rect x="70" y="245" width="210" height="270" rx="28"/><rect x="355" y="245" width="210" height="270" rx="28"/><rect x="640" y="245" width="210" height="270" rx="28"/><rect x="925" y="245" width="210" height="270" rx="28"/></g>
<g fill="none" stroke="#d8ff3e" stroke-width="14" stroke-linecap="round" stroke-linejoin="round"><path d="M130 350h90v65h-90zM130 350l45 36 45-36"/><path d="M418 420v-83h85v83M438 365h45M438 392h45"/><path d="M696 350h100v88H696zM716 382h60M716 410h40"/><path d="M987 410l31 30 58-82"/></g>
<g fill="#fff" opacity=".2"><rect x="105" y="468" width="140" height="12" rx="6"/><rect x="390" y="468" width="140" height="12" rx="6"/><rect x="675" y="468" width="140" height="12" rx="6"/><rect x="960" y="468" width="140" height="12" rx="6"/></g>
<circle cx="317" cy="380" r="22" fill="#d8ff3e"/><circle cx="602" cy="380" r="22" fill="#d8ff3e"/><circle cx="887" cy="380" r="22" fill="#d8ff3e"/></svg>